<svg xmlns="http://www.w3.org/2000/svg" version="1.1" xmlns:xlink="http://www.w3.org/1999/xlink" xmlns:svgjs="http://svgjs.dev/svgjs" width="2000" height="2000" viewBox="0 0 2000 2000"><g transform="matrix(1,0,0,1,-0.28443113772425477,-0.28443113772459583)"><svg viewBox="0 0 334 334" data-background-color="#ffffff" preserveAspectRatio="xMidYMid meet" height="2000" width="2000" xmlns="http://www.w3.org/2000/svg" xmlns:xlink="http://www.w3.org/1999/xlink"><g id="tight-bounds" transform="matrix(1,0,0,1,0.04749999999998522,0.04750000000001364)"><svg viewBox="0 0 333.90454557049503 333.90454557049503" height="333.90454557049503" width="333.90454557049503"><g><svg></svg></g><g><svg viewBox="0 0 333.90454557049503 333.90454557049503" height="333.90454557049503" width="333.90454557049503"><g><path d="M0 166.952c0-92.205 74.747-166.952 166.952-166.952 92.205 0 166.952 74.747 166.953 166.952 0 92.205-74.747 166.952-166.953 166.953-92.205 0-166.952-74.747-166.952-166.953zM166.952 325.62c87.63 0 158.668-71.038 158.668-158.668 0-87.63-71.038-158.668-158.668-158.668-87.63 0-158.668 71.038-158.668 158.668 0 87.63 71.038 158.668 158.668 158.668z" data-fill-palette-color="tertiary" fill="#7510f7" stroke="transparent"></path><ellipse rx="160.27418187383762" ry="160.27418187383762" cx="166.95227278524752" cy="166.95227278524752" fill="#7510f7" stroke="transparent" stroke-width="0" fill-opacity="1" data-fill-palette-color="tertiary"></ellipse></g><g transform="matrix(1,0,0,1,103.83950440482701,71.17305217166896)"><svg viewBox="0 0 126.22553676084101 191.55844122715712" height="191.55844122715712" width="126.22553676084101"><g><svg viewBox="0 0 126.22553676084101 191.55844122715712" height="191.55844122715712" width="126.22553676084101"><g><svg viewBox="0 0 213.15844122715714 323.4868298738122" height="191.55844122715712" width="126.22553676084101"><g transform="matrix(1,0,0,1,0,168.3548532029367)"><svg viewBox="0 0 213.15844122715714 155.13197667087547" height="155.13197667087547" width="213.15844122715714"><g id="textblocktransform"><svg viewBox="0 0 213.15844122715714 155.13197667087547" height="155.13197667087547" width="213.15844122715714" id="textblock"><g><svg viewBox="0 0 213.15844122715714 155.13197667087547" height="155.13197667087547" width="213.15844122715714"><g transform="matrix(1,0,0,1,0,0)"><svg width="213.15844122715714" viewBox="2.4 -32.75 45 32.75" height="155.13197667087547" data-palette-color="#ffffff"><path d="M5.1 0L2.4 0 2.4-32.75 5.05-32.75 12.1-14.4 12.85-14.4 19.9-32.75 22.55-32.75 22.55 0 19.85 0 19.85-25.4 19.65-25.4 14.4-11.85 10.55-11.85 5.3-25.45 5.1-25.45 5.1 0ZM38.4-13.45L38.4-13.45Q35.7-13.3 34.9-13.3L34.9-13.3 30.8-13.3 30.8 0 28.05 0 28.05-32.75 35.4-32.75Q41.5-32.75 44.35-30.65 47.2-28.55 47.2-23.25L47.2-23.25Q47.2-19.7 45.77-17.55 44.35-15.4 41.2-14.05L41.2-14.05Q44.6-7.6 47.4 0L47.4 0 44.4 0Q41.65-7.3 38.4-13.45ZM35.3-30.25L35.3-30.25 30.8-30.25 30.8-15.8 34.8-15.8Q39.4-15.8 41.85-17.48 44.3-19.15 44.3-23.25 44.3-27.35 42.12-28.8 39.95-30.25 35.3-30.25Z" opacity="1" transform="matrix(1,0,0,1,0,0)" fill="#ffffff" class="wordmark-text-0" data-fill-palette-color="quaternary" id="text-0"></path></svg></g></svg></g></svg></g></svg></g><g transform="matrix(1,0,0,1,40.71326227438702,0)"><svg viewBox="0 0 131.7319166783831 131.7319166783831" height="131.7319166783831" width="131.7319166783831"><g><svg xmlns="http://www.w3.org/2000/svg" xmlns:xlink="http://www.w3.org/1999/xlink" version="1.1" x="0" y="0" viewBox="5 5 90 90" enable-background="new 0 0 100 100" xml:space="preserve" height="131.7319166783831" width="131.7319166783831" class="icon-icon-0" data-fill-palette-color="quaternary" id="icon-0"><path d="M50 5C25.1 5 5 25.1 5 50c0 24.8 20.1 45 45 45 24.9 0 45-20.2 45-45C95 25.1 74.9 5 50 5L50 5zM50 77c-14.9 0-27-12.1-27-27 0-14.9 12.1-27 27-27 14.9 0 27 12.1 27 27C77 64.9 64.9 77 50 77L50 77zM40.3 30.7C34 33.9 29.5 40 28.6 47.3h8C36.8 40.7 38.2 35 40.3 30.7L40.3 30.7zM50 70.7c3.1 0 7.3-6.8 8-18H42C42.7 63.9 46.9 70.7 50 70.7L50 70.7zM28.6 52.7c1 7.5 5.7 13.8 12.4 16.9-2.4-4.2-4-10-4.4-16.9H28.6zM59.7 30.7c2.1 4.3 3.5 10 3.8 16.6h7.9C70.5 40 66 33.9 59.7 30.7L59.7 30.7zM50 28.4c-3.2 0-7.5 7.1-8 18.9H58C57.5 35.5 53.2 28.4 50 28.4L50 28.4zM59 69.5c6.6-3.1 11.4-9.3 12.4-16.9h-8C63 59.5 61.5 65.4 59 69.5z" fill="#ffffff" data-fill-palette-color="quaternary"></path></svg></g></svg></g><g></g></svg></g></svg></g></svg></g></svg></g><defs></defs></svg><rect width="333.90454557049503" height="333.90454557049503" fill="none" stroke="none" visibility="hidden"></rect></g></svg></g></svg>